<svg width="25" height="24" viewBox="0 0 25 24" fill="none" xmlns="http://www.w3.org/2000/svg">
<path d="M12.5 23.131C6.72759 23.131 0.5 19.5103 0.5 11.5655C0.5 3.62069 6.72759 0 12.5 0C15.7069 0 18.6655 1.05517 20.8586 2.97931C23.2379 5.08965 24.5 8.06896 24.5 11.5655C24.5 15.0621 23.2379 18.0207 20.8586 20.131C18.6655 22.0552 15.6862 23.131 12.5 23.131Z" fill="url(#paint0_radial_236_17508)"/>
<path d="M22.4075 4.69037C23.5103 6.46968 24.0855 8.5883 24.0855 10.9449C24.0855 14.4414 22.8234 17.4 20.4441 19.5104C18.251 21.4345 15.2717 22.5104 12.0855 22.5104C8.34891 22.5104 4.42201 20.9897 2.11719 17.7642C4.34339 21.418 8.52891 23.1311 12.4993 23.1311C15.6855 23.1311 18.6648 22.0552 20.8579 20.1311C23.2372 18.0207 24.4993 15.0621 24.4993 11.5655C24.4993 8.92968 23.7813 6.58761 22.4075 4.69037Z" fill="#EB8F00"/>
<path d="M12.5 23.131C6.72759 23.131 0.5 19.5103 0.5 11.5655C0.5 3.62069 6.72759 0 12.5 0C15.7069 0 18.6655 1.05517 20.8586 2.97931C23.2379 5.08965 24.5 8.06896 24.5 11.5655C24.5 15.0621 23.2379 18.0207 20.8586 20.131C18.6655 22.0552 15.6862 23.131 12.5 23.131Z" fill="url(#paint1_radial_236_17508)"/>
<path d="M22.4075 4.69037C23.5103 6.46968 24.0855 8.5883 24.0855 10.9449C24.0855 14.4414 22.8234 17.4 20.4441 19.5104C18.251 21.4345 15.2717 22.5104 12.0855 22.5104C8.34891 22.5104 4.42201 20.9897 2.11719 17.7642C4.34339 21.418 8.52891 23.1311 12.4993 23.1311C15.6855 23.1311 18.6648 22.0552 20.8579 20.1311C23.2372 18.0207 24.4993 15.0621 24.4993 11.5655C24.4993 8.92968 23.7813 6.58761 22.4075 4.69037Z" fill="#EB8F00"/>
<path d="M16.2452 5.72689C14.497 6.20483 13.5432 7.69034 13.8411 9.58965C14.0232 10.7607 15.1963 13.0303 18.308 12.3434C20.1638 11.9338 21.1032 10.5828 21.068 8.81379C21.0659 8.70414 20.9956 8.64 20.9749 8.63586C20.9749 8.63586 20.9314 8.67724 20.8611 8.94C20.5052 10.2621 19.5763 11.4972 17.9149 11.6814C15.8356 11.9131 14.7763 10.469 14.6149 9.43448C14.4018 8.05862 15.1011 6.85448 16.4542 6.48414C17.2549 6.26483 18.0328 6.49241 18.5894 7.10896C18.8501 7.39862 19.1314 7.93448 19.0363 8.46414C18.7735 9.91034 17.4307 9.88965 16.9694 9.5462C16.6176 9.28138 16.4935 8.73103 17.228 8.55103C17.4949 8.48689 17.7245 8.42482 17.797 8.07103C17.8445 7.84551 17.6583 7.61586 17.4576 7.51448C17.0149 7.28896 16.4542 7.49793 16.1211 7.78758C15.7632 8.09793 15.6142 8.58414 15.7094 9.12C15.7838 9.53793 16.1232 10.0841 16.7087 10.3759C17.4307 10.7359 19.3342 10.6924 19.7811 8.8262C19.9859 7.96758 19.6114 7.08 19.2101 6.62276C18.0783 5.34207 16.5307 5.64827 16.2452 5.72689Z" fill="#422B0D"/>
<path d="M8.75535 12.3827C10.5036 11.9048 11.4574 10.4193 11.1595 8.51997C10.9774 7.34894 9.80432 5.07928 6.69259 5.76618C4.83673 6.17583 3.89742 7.52687 3.93259 9.29583C3.93466 9.40549 4.00501 9.46963 4.0257 9.47376C4.0257 9.47376 4.06914 9.43238 4.13949 9.16963C4.49535 7.84756 5.42432 6.61238 7.0857 6.42825C9.16501 6.19652 10.2243 7.64066 10.3857 8.67514C10.5988 10.051 9.89949 11.2551 8.54639 11.6255C7.7457 11.8448 6.96777 11.6172 6.41121 11.0007C6.15052 10.711 5.86914 10.1751 5.96432 9.64549C6.22708 8.19928 7.56983 8.21997 8.03121 8.56342C8.38294 8.82825 8.50708 9.37859 7.77259 9.55859C7.5057 9.62273 7.27604 9.6848 7.20363 10.0386C7.15604 10.2641 7.34225 10.4938 7.54294 10.5951C7.9857 10.8207 8.54639 10.6117 8.87949 10.322C9.23742 10.0117 9.38639 9.52549 9.29121 8.98963C9.21673 8.57169 8.87742 8.02549 8.2919 7.73376C7.56983 7.37376 5.66639 7.41721 5.21949 9.28342C5.01466 10.142 5.38914 11.0296 5.79052 11.4869C6.92225 12.7655 8.46984 12.4613 8.75535 12.3827Z" fill="#422B0D"/>
<path d="M19.8436 16.6055C19.5354 16.2496 18.5919 15.6103 16.8788 16.4483C16.4981 16.6345 16.2974 16.8455 15.6085 16.7959C15.1554 16.7648 14.816 16.5455 14.4271 16.2952C13.9326 15.9765 13.3719 15.6207 12.5029 15.5855C11.634 15.6207 11.0733 15.9765 10.5788 16.2952C10.1878 16.5476 9.85053 16.7648 9.39743 16.7959C8.70846 16.8455 8.48915 16.6676 8.10846 16.4814C6.39536 15.6434 5.47053 16.2496 5.16225 16.6055C4.88708 16.9241 5.07329 17.2634 5.58019 16.9014C5.8926 16.6779 6.45329 16.3945 7.72157 17.1103C8.12915 17.34 8.51398 17.6876 9.45536 17.6214C10.1216 17.5738 10.5829 17.2779 11.0278 16.9903C11.4623 16.709 11.8781 16.4462 12.5029 16.4131C13.1298 16.4462 13.5436 16.709 13.9781 16.9903C14.4229 17.2779 14.8843 17.5759 15.5505 17.6214C16.4919 17.6876 16.8581 17.3069 17.2657 17.0772C18.534 16.3614 19.1133 16.6779 19.4257 16.9014C19.9305 17.2634 20.1188 16.9241 19.8436 16.6055Z" fill="#422B0D"/>
<defs>
<radialGradient id="paint0_radial_236_17508" cx="0" cy="0" r="1" gradientUnits="userSpaceOnUse" gradientTransform="translate(12.5 11.5655) scale(11.7848)">
<stop offset="0.5" stop-color="#FDE030"/>
<stop offset="0.9188" stop-color="#F7C02B"/>
<stop offset="1" stop-color="#F4A223"/>
</radialGradient>
<radialGradient id="paint1_radial_236_17508" cx="0" cy="0" r="1" gradientUnits="userSpaceOnUse" gradientTransform="translate(12.5 11.5655) scale(11.7848)">
<stop offset="0.5" stop-color="#FDE030"/>
<stop offset="0.9188" stop-color="#F7C02B"/>
<stop offset="1" stop-color="#F4A223"/>
</radialGradient>
</defs>
</svg>
