<svg width="17" height="16" viewBox="0 0 17 16" fill="none" xmlns="http://www.w3.org/2000/svg">
<path d="M15.0397 2.62665C14.013 5.18665 11.4397 8.66665 9.28635 10.3933L7.97302 11.4466C7.80635 11.5666 7.63969 11.6733 7.45302 11.7466C7.45302 11.6266 7.44635 11.4933 7.42635 11.3666C7.35302 10.8066 7.09969 10.2866 6.65302 9.83998C6.19969 9.38665 5.64635 9.11998 5.07969 9.04665C4.94635 9.03998 4.81302 9.02665 4.67969 9.03998C4.75302 8.83331 4.86635 8.63998 5.00635 8.47998L6.04635 7.16665C7.76635 5.01331 11.2597 2.42665 13.813 1.40665C14.2064 1.25998 14.5864 1.36665 14.8264 1.61331C15.0797 1.85998 15.1997 2.23998 15.0397 2.62665Z" stroke="#0D212A" stroke-opacity="0.5" stroke-width="1.5" stroke-linecap="round" stroke-linejoin="round"/>
<path d="M7.45417 11.7467C7.45417 12.48 7.17417 13.18 6.6475 13.7133C6.24083 14.12 5.6875 14.4 5.0275 14.4867L3.3875 14.6667C2.49417 14.7667 1.7275 14.0067 1.83417 13.1L2.01417 11.46C2.17417 9.99999 3.39417 9.06666 4.6875 9.03999C4.82083 9.03333 4.96083 9.03999 5.0875 9.04666C5.65417 9.11999 6.2075 9.37999 6.66083 9.83999C7.1075 10.2867 7.36083 10.8067 7.43417 11.3667C7.44083 11.4933 7.45417 11.62 7.45417 11.7467Z" stroke="#0D212A" stroke-opacity="0.5" stroke-width="1.5" stroke-linecap="round" stroke-linejoin="round"/>
<path d="M9.99318 9.64668C9.99318 7.90668 8.57984 6.49335 6.83984 6.49335" stroke="#0D212A" stroke-opacity="0.5" stroke-width="1.5" stroke-linecap="round" stroke-linejoin="round"/>
</svg>
