<svg width="25" height="24" viewBox="0 0 25 24" fill="none" xmlns="http://www.w3.org/2000/svg">
<defs>
<radialGradient id="paint0_radial_236_17469" cx="0" cy="0" r="1" gradientUnits="userSpaceOnUse" gradientTransform="translate(12.5 11.5655) scale(11.7848)">
<stop offset="0.5" stop-color="#FDE030"/>
<stop offset="0.92" stop-color="#F7C02B"/>
<stop offset="1" stop-color="#F4A223"/>
</radialGradient>
</defs>
<path d="M12.5 23.131C6.72759 23.131 0.5 19.5103 0.5 11.5655C0.5 3.62069 6.72759 0 12.5 0C15.7069 0 18.6655 1.05517 20.8586 2.97931C23.2379 5.08965 24.5 8.06897 24.5 11.5655C24.5 15.0621 23.2379 18.0207 20.8586 20.131C18.6655 22.0552 15.6862 23.131 12.5 23.131Z" fill="url(#paint0_radial_236_17469)"/>
<path d="M22.4075 4.69037C23.5103 6.46968 24.0855 8.5883 24.0855 10.9449C24.0855 14.4414 22.8234 17.4 20.4441 19.5104C18.251 21.4345 15.2717 22.5104 12.0855 22.5104C8.34891 22.5104 4.43029 20.9897 2.11719 17.7642C4.34339 21.418 8.53098 23.1311 12.4993 23.1311C15.6855 23.1311 18.6648 22.0552 20.8579 20.1311C23.2372 18.0207 24.4993 15.0621 24.4993 11.5655C24.4993 8.92968 23.7813 6.58761 22.4075 4.69037Z" fill="#EB8F00"/>
<path d="M7.20312 9.93103H10.3066" stroke="#35220B" stroke-width="2" stroke-linecap="round" stroke-linejoin="round"/>
<path d="M15.0664 9.93103H18.1699" stroke="#35220B" stroke-width="2" stroke-linecap="round" stroke-linejoin="round"/>
<path d="M17.7544 16.7586H7.40962C6.95238 16.7586 6.58203 16.3883 6.58203 15.931C6.58203 15.4738 6.95238 15.1035 7.40962 15.1035H17.7544C18.2117 15.1035 18.582 15.4738 18.582 15.931C18.582 16.3883 18.2117 16.7586 17.7544 16.7586Z" fill="#422B0D"/>
</svg>
