<svg width="24" height="24" viewBox="0 0 24 24" fill="none" xmlns="http://www.w3.org/2000/svg">
<path d="M12 23.3422C6.22759 23.3422 0 19.7215 0 11.7767C0 3.83187 6.22759 0.211182 12 0.211182C15.2069 0.211182 18.1655 1.26635 20.3586 3.19049C22.7379 5.30084 24 8.28015 24 11.7767C24 15.2732 22.7379 18.2319 20.3586 20.3422C18.1655 22.2664 15.1862 23.3422 12 23.3422Z" fill="url(#paint0_radial_236_17485)"/>
<path d="M21.9075 4.90149C23.0103 6.6808 23.5855 8.79942 23.5855 11.156C23.5855 14.6525 22.3234 17.6111 19.9441 19.7215C17.751 21.6456 14.7717 22.7215 11.5855 22.7215C7.84891 22.7215 3.93029 21.2008 1.61719 17.9753C3.84339 21.6291 8.03098 23.3422 11.9993 23.3422C15.1855 23.3422 18.1648 22.2663 20.3579 20.3422C22.7372 18.2318 23.9993 15.2732 23.9993 11.7767C23.9993 9.1408 23.2813 6.79873 21.9075 4.90149Z" fill="#EB8F00"/>
<path d="M14.093 14.0733C13.8882 13.7526 13.9813 13.3243 14.302 13.1195C14.3558 13.0843 14.4158 13.0574 14.4779 13.0388C15.1772 12.7636 15.922 12.6146 16.673 12.6002C17.4241 12.6126 18.1689 12.7533 18.8744 13.014C19.2489 13.1215 19.4661 13.5126 19.3565 13.8871C19.3399 13.9429 19.3172 13.9988 19.2882 14.0484C19.0772 14.3629 18.6799 14.4933 18.3241 14.3671C17.8048 14.1684 17.2565 14.0567 16.6999 14.036C16.1413 14.0546 15.5889 14.1664 15.0675 14.3671C14.7137 14.5119 14.3082 14.3898 14.093 14.0733Z" fill="#422B0D"/>
<path d="M4.86508 14.0733C4.66025 13.7484 4.7575 13.3222 5.08232 13.1174C5.13612 13.0843 5.19405 13.0574 5.25612 13.0388C5.95543 12.7615 6.70025 12.6146 7.45336 12.6002C8.20439 12.6126 8.94922 12.7533 9.65267 13.014C10.0271 13.1236 10.2423 13.5167 10.1347 13.8912C10.1182 13.9471 10.0954 13.9988 10.0665 14.0484C9.85543 14.3629 9.45818 14.4953 9.10025 14.3671C8.58094 14.1684 8.03267 14.0567 7.47612 14.036C6.9175 14.0546 6.36508 14.1664 5.8437 14.3671C5.48991 14.514 5.08025 14.3919 4.86508 14.0733Z" fill="#422B0D"/>
<path d="M12.0837 16.8043C14.3182 16.8043 15.7665 18.4388 16.1596 19.2043C16.3044 19.494 16.3044 19.7423 16.1803 19.8457C16.0478 19.9285 15.8782 19.9285 15.7458 19.8457C15.6796 19.8188 15.6175 19.7836 15.5596 19.7423C14.5458 19.014 13.3313 18.6167 12.0837 18.6043C10.8403 18.6209 9.62784 19.0098 8.60784 19.7216C8.54991 19.7629 8.48784 19.7981 8.42163 19.825C8.28922 19.9078 8.11956 19.9078 7.98715 19.825C7.86301 19.7009 7.86301 19.4733 8.00784 19.1836C8.40094 18.4388 9.84922 16.8043 12.0837 16.8043Z" fill="#422B0D"/>
<path d="M4.97845 10.4567C3.22603 10.4567 1.875 8.76012 1.875 7.30564C1.875 6.2815 2.33224 5.09598 2.97776 3.45323C3.05845 3.21116 3.16603 2.96909 3.27362 2.69805C3.5819 1.9284 3.855 1.09461 4.26879 0.372537C4.46534 0.0208127 4.91017 -0.103325 5.25983 0.0932264C5.37569 0.159433 5.47293 0.254606 5.53914 0.372537C5.92396 1.08219 6.18672 1.84978 6.5881 2.74564C7.71983 5.27805 8.03638 6.30219 8.03638 7.32633C8.07569 8.76012 6.70397 10.4567 4.97845 10.4567Z" fill="#44B3E6"/>
<path d="M6.87123 8.51394C6.47606 9.13463 5.57812 9.01049 5.57812 7.99463C5.57812 7.34498 5.71054 4.01187 6.26709 4.47739C7.17537 5.2367 7.43399 7.65946 6.87123 8.51394Z" fill="#81D4FA"/>
<defs>
<radialGradient id="paint0_radial_236_17485" cx="0" cy="0" r="1" gradientUnits="userSpaceOnUse" gradientTransform="translate(12 11.7767) scale(11.7848)">
<stop offset="0.5" stop-color="#FDE030"/>
<stop offset="0.92" stop-color="#F7C02B"/>
<stop offset="1" stop-color="#F4A223"/>
</radialGradient>
</defs>
</svg>
