<svg width="24" height="24" viewBox="0 0 24 24" fill="none" xmlns="http://www.w3.org/2000/svg">
<path d="M11.9609 23.0557C6.20729 23.0557 0 19.4468 0 11.5278C0 3.60889 6.20729 0 11.9609 0C15.1573 0 18.1063 1.05173 20.2923 2.9696C22.6638 5.07307 23.9218 8.04267 23.9218 11.5278C23.9218 15.013 22.6638 17.962 20.2923 20.0654C18.1022 21.9833 15.1367 23.0557 11.9609 23.0557Z" fill="url(#paint0_radial_236_17438)"/>
<path d="M7.99744 6.99921C7.13336 6.99921 6.34766 7.72923 6.34766 8.94182C6.34766 10.1544 7.13336 10.8824 7.99744 10.8824C8.86357 10.8824 9.64721 10.1523 9.64721 8.94182C9.64721 7.7313 8.87182 6.99921 7.99744 6.99921Z" fill="#422B0D"/>
<path d="M7.92532 7.80968C7.63249 7.66945 7.27985 7.79319 7.13755 8.08602C7.02826 8.31493 7.07775 8.5892 7.26129 8.76656C7.55412 8.90679 7.90676 8.78305 8.04906 8.49022C8.15835 8.26131 8.10886 7.98704 7.92532 7.80968Z" fill="#896024"/>
<path d="M15.9154 6.99921C15.0513 6.99921 14.2656 7.72923 14.2656 8.94182C14.2656 10.1544 15.0513 10.8824 15.9154 10.8824C16.7795 10.8824 17.5652 10.1523 17.5652 8.94182C17.5652 7.7313 16.7795 6.99921 15.9154 6.99921Z" fill="#422B0D"/>
<path d="M15.8335 7.80968C15.5407 7.66945 15.188 7.79319 15.0458 8.08602C14.9365 8.31493 14.986 8.5892 15.1695 8.76656C15.4623 8.90679 15.815 8.78305 15.9573 8.49022C16.0666 8.26131 16.0171 7.98704 15.8335 7.80968Z" fill="#896024"/>
<path d="M21.9156 4.67505C23.0148 6.44856 23.5881 8.56028 23.5881 10.9092C23.5881 14.3943 22.3301 17.3433 19.9586 19.4468C17.7726 21.3646 14.803 22.437 11.6272 22.437C7.90282 22.437 3.99697 20.9212 1.69141 17.7062C3.91036 21.3481 8.0843 23.0557 12.0396 23.0557C15.2155 23.0557 18.1851 21.9833 20.371 20.0654C22.7426 17.962 24.0005 15.013 24.0005 11.5278C24.0005 8.90055 23.285 6.56611 21.9156 4.67505Z" fill="#EB8F00"/>
<path d="M19.9716 13.3261C19.6828 12.8044 19.0559 12.5755 18.4991 12.7858C16.3833 13.4024 14.1891 13.7097 11.9846 13.6994C9.78004 13.7097 7.58583 13.4024 5.46999 12.7858C4.91525 12.5755 4.28834 12.8023 3.99963 13.322C3.71916 13.8396 3.92126 14.4397 4.15842 14.9573C5.48237 17.8651 8.40041 19.6056 11.9681 19.6159H12.0011C15.5687 19.6159 18.4868 17.8651 19.8128 14.9573C20.0479 14.4356 20.252 13.8437 19.9716 13.3261Z" fill="#422B0D"/>
<path d="M15.2872 18.7951C15.2109 18.725 15.1326 18.661 15.0542 18.5889C14.2128 17.8485 13.124 17.4505 12.0021 17.4732C10.8473 17.4546 9.72336 17.8382 8.82216 18.56C8.7438 18.6239 8.66131 18.6858 8.58501 18.7662C8.50871 18.8466 8.46746 18.9044 8.41797 18.9724C9.55219 19.4158 10.7607 19.6427 11.9794 19.6365H12.0124C13.1796 19.6365 14.3366 19.4282 15.4295 19.0178C15.3883 18.9394 15.3409 18.8652 15.2872 18.7951Z" fill="#ED7770"/>
<path d="M18.5006 12.7858C16.3848 13.4024 14.1906 13.7096 11.986 13.6993C9.78153 13.7096 7.58732 13.4024 5.47148 12.7858C4.91674 12.5754 4.28982 12.8023 4.00111 13.3219C3.95987 13.4003 3.92687 13.4828 3.90625 13.5673C3.9743 13.6024 4.05267 13.6375 4.14547 13.6746C6.62839 14.9181 9.37321 15.5491 12.149 15.5161C14.8113 15.5471 17.4427 14.9676 19.8472 13.8251C19.9442 13.7839 20.0246 13.7447 20.0968 13.7076C20.0803 13.5735 20.037 13.4415 19.973 13.3219C19.6843 12.8023 19.0574 12.5734 18.5006 12.7858Z" fill="white"/>
<path d="M19.9798 13.3282C19.687 12.8064 19.058 12.5755 18.4971 12.7858C16.3812 13.4024 14.187 13.7097 11.9846 13.6994C9.78004 13.7097 7.58583 13.4024 5.46999 12.7858C4.91525 12.5755 4.28834 12.8023 3.99963 13.322C3.71916 13.8396 3.92126 14.4397 4.15842 14.9573C4.26359 15.1904 4.38114 15.4193 4.51106 15.6399C4.51106 15.6399 4.07799 14.0355 4.45332 13.5695C4.58117 13.3715 4.79565 13.2477 5.03074 13.2354C5.12766 13.2354 5.22253 13.2519 5.31533 13.2807C7.46829 13.9138 9.70168 14.2335 11.9474 14.2294H12.0196C14.2654 14.2335 16.4988 13.9138 18.6517 13.2807C18.7445 13.2519 18.8394 13.2354 18.9363 13.2354C19.1714 13.2477 19.3879 13.3715 19.5158 13.5695C19.8973 14.0355 19.4581 15.6461 19.4581 15.6461C19.5859 15.4255 19.7138 15.1986 19.821 14.9635C20.0561 14.4459 20.2603 13.8479 19.9798 13.3282Z" fill="#EB8F00"/>
<defs>
<radialGradient id="paint0_radial_236_17438" cx="0" cy="0" r="1" gradientUnits="userSpaceOnUse" gradientTransform="translate(11.9609 11.5278) scale(11.7464)">
<stop offset="0.5" stop-color="#FDE030"/>
<stop offset="0.92" stop-color="#F7C02B"/>
<stop offset="1" stop-color="#F4A223"/>
</radialGradient>
</defs>
</svg>
