<svg width="17" height="16" viewBox="0 0 17 16" fill="none" xmlns="http://www.w3.org/2000/svg">
<path d="M2.5 5.2C2.5 4.0799 2.5 3.51984 2.71799 3.09202C2.90973 2.71569 3.21569 2.40973 3.59202 2.21799C4.01984 2 4.5799 2 5.7 2H11.3C12.4201 2 12.9802 2 13.408 2.21799C13.7843 2.40973 14.0903 2.71569 14.282 3.09202C14.5 3.51984 14.5 4.07989 14.5 5.2V8.8C14.5 9.9201 14.5 10.4802 14.282 10.908C14.0903 11.2843 13.7843 11.5903 13.408 11.782C12.9802 12 12.4201 12 11.3 12H6.95583C6.5398 12 6.33178 12 6.13281 12.0408C5.95628 12.0771 5.78547 12.137 5.62499 12.219C5.44411 12.3114 5.28168 12.4413 4.95681 12.7012L3.3665 13.9735C3.08911 14.1954 2.95042 14.3063 2.83369 14.3065C2.73218 14.3066 2.63615 14.2604 2.57282 14.1811C2.5 14.0898 2.5 13.9122 2.5 13.557V5.2Z" stroke="#CBCBCB" stroke-opacity="0.6" stroke-width="1.5" stroke-linecap="round" stroke-linejoin="round"/>
</svg>
