<svg width="32" height="32" viewBox="0 0 32 32" fill="none" xmlns="http://www.w3.org/2000/svg">
<circle cx="16" cy="16" r="15.5" stroke="#575757"/>
<path d="M16 11.3666V14.1416" stroke="#575757" stroke-width="1.5" stroke-miterlimit="10" stroke-linecap="round"/>
<path d="M16.0171 7.66669C12.9504 7.66669 10.4671 10.15 10.4671 13.2167V14.9667C10.4671 15.5334 10.2337 16.3834 9.94207 16.8667L8.88374 18.6334C8.23374 19.725 8.68374 20.9417 9.88374 21.3417C13.8671 22.6667 18.1754 22.6667 22.1587 21.3417C23.2837 20.9667 23.7671 19.65 23.1587 18.6334L22.1004 16.8667C21.8087 16.3834 21.5754 15.525 21.5754 14.9667V13.2167C21.5671 10.1667 19.0671 7.66669 16.0171 7.66669Z" stroke="#575757" stroke-width="1.5" stroke-miterlimit="10" stroke-linecap="round"/>
<path d="M18.7746 21.6833C18.7746 23.2083 17.5246 24.4583 15.9996 24.4583C15.2413 24.4583 14.5413 24.1417 14.0413 23.6417C13.5413 23.1417 13.2246 22.4417 13.2246 21.6833" stroke="#575757" stroke-width="1.5" stroke-miterlimit="10"/>
</svg>
