<svg width="25" height="24" viewBox="0 0 25 24" fill="none" xmlns="http://www.w3.org/2000/svg">
<path d="M12.5 23.131C6.72759 23.131 0.5 19.5103 0.5 11.5655C0.5 3.62069 6.72759 0 12.5 0C15.7069 0 18.6655 1.05517 20.8586 2.97931C23.2379 5.08965 24.5 8.06896 24.5 11.5655C24.5 15.0621 23.2379 18.0207 20.8586 20.131C18.6655 22.0552 15.6862 23.131 12.5 23.131Z" fill="url(#paint0_radial_236_17320)"/>
<path d="M8.44619 7.02209C7.57929 7.02209 6.79102 7.75451 6.79102 8.97106C6.79102 10.1876 7.57929 10.918 8.44619 10.918C9.31515 10.918 10.1014 10.1855 10.1014 8.97106C10.1014 7.75658 9.32343 7.02209 8.44619 7.02209Z" fill="#422B0D"/>
<path d="M8.37145 7.8352C8.07765 7.69451 7.72386 7.81865 7.5811 8.11244C7.47145 8.3421 7.5211 8.61727 7.70524 8.7952C7.99903 8.93589 8.35282 8.81175 8.49558 8.51796C8.60524 8.28831 8.55558 8.01313 8.37145 7.8352Z" fill="#896024"/>
<path d="M16.3895 7.02209C15.5227 7.02209 14.7344 7.75451 14.7344 8.97106C14.7344 10.1876 15.5227 10.918 16.3895 10.918C17.2564 10.918 18.0447 10.1855 18.0447 8.97106C18.0447 7.75658 17.2564 7.02209 16.3895 7.02209Z" fill="#422B0D"/>
<path d="M16.307 7.8352C16.0132 7.69451 15.6594 7.81865 15.5166 8.11244C15.407 8.3421 15.4566 8.61727 15.6408 8.7952C15.9346 8.93589 16.2884 8.81175 16.4311 8.51796C16.5408 8.28831 16.4911 8.01313 16.307 7.8352Z" fill="#896024"/>
<path d="M12.3765 17.5055C10.5 17.52 8.70826 16.7317 7.45239 15.3372C7.35722 15.2276 7.33446 15.0724 7.39446 14.94C7.45446 14.8055 7.58688 14.7186 7.73377 14.7166C7.79998 14.7166 7.86619 14.7352 7.92412 14.7683C8.92136 15.3414 10.5889 16.0531 12.3765 16.0531H12.4055C14.191 16.0531 15.8607 15.3414 16.8558 14.7683C16.9138 14.7352 16.98 14.7166 17.0462 14.7166C17.1931 14.7186 17.3255 14.8055 17.3855 14.94C17.4476 15.0724 17.4248 15.2276 17.3276 15.3372C16.0717 16.7317 14.2758 17.5221 12.3993 17.5055" fill="#422B0D"/>
<path d="M22.4075 4.69031C23.5103 6.46962 24.0855 8.58824 24.0855 10.9448C24.0855 14.4413 22.8234 17.4 20.4441 19.5103C18.251 21.4344 15.2717 22.5103 12.0855 22.5103C8.34891 22.5103 4.43029 20.9896 2.11719 17.7641C4.34339 21.4179 8.53098 23.131 12.4993 23.131C15.6855 23.131 18.6648 22.0551 20.8579 20.131C23.2372 18.0207 24.4993 15.062 24.4993 11.5655C24.4993 8.92962 23.7813 6.58755 22.4075 4.69031Z" fill="#EB8F00"/>
<defs>
<radialGradient id="paint0_radial_236_17320" cx="0" cy="0" r="1" gradientUnits="userSpaceOnUse" gradientTransform="translate(12.5 11.5655) scale(11.7848)">
<stop offset="0.5" stop-color="#FDE030"/>
<stop offset="0.92" stop-color="#F7C02B"/>
<stop offset="1" stop-color="#F4A223"/>
</radialGradient>
</defs>
</svg>
